<svg width="41" height="50" viewBox="0 0 41 50" fill="none" xmlns="http://www.w3.org/2000/svg">
<path d="M27.7074 7.97447C28.6525 6.88524 29.3731 5.62005 29.8278 4.25156C30.2825 2.88307 30.4625 1.43822 30.3573 0C27.4559 0.234202 24.7626 1.59878 22.8578 3.79975C21.9456 4.85462 21.2543 6.08179 20.8249 7.40862C20.3955 8.73544 20.2367 10.1349 20.3579 11.5242C21.7732 11.536 23.1722 11.222 24.4466 10.6064C25.7211 9.99089 26.8368 9.09033 27.7074 7.97447ZM34.007 26.5732C34.0238 24.6577 34.5283 22.778 35.4731 21.1116C36.4178 19.4452 37.7716 18.0469 39.4067 17.0489C38.3748 15.5621 37.0107 14.3361 35.4225 13.4683C33.8344 12.6005 32.0659 12.1146 30.2573 12.0492C26.3575 11.6492 22.7578 14.324 20.6829 14.324C18.608 14.324 15.6832 12.0992 12.4334 12.1492C10.3089 12.2192 8.23878 12.8386 6.42497 13.947C4.61115 15.0555 3.11559 16.6151 2.08414 18.4738C-2.31557 26.1233 0.959212 37.4975 5.35892 43.6721C7.35879 46.6969 9.85862 50.1217 13.1584 49.9967C16.4582 49.8717 17.5331 47.9468 21.3579 47.9468C25.1826 47.9468 26.3575 49.9967 29.6073 49.9217C32.8571 49.8467 35.1569 46.8219 37.2568 43.7971C38.7443 41.6011 39.9063 39.2014 40.7066 36.6726C38.7254 35.8277 37.0351 34.4209 35.8445 32.6261C34.6539 30.8313 34.0151 28.727 34.007 26.5732Z" fill="black"/>
</svg>
