<svg width="49" height="50" viewBox="0 0 49 50" fill="none" xmlns="http://www.w3.org/2000/svg">
<path d="M48.8316 25.4678C48.8316 23.4193 48.6654 21.9245 48.3057 20.3743H24.9141V29.6201H38.6444C38.3677 31.9178 36.8728 35.3781 33.5509 37.7033L33.5043 38.0128L40.9003 43.7424L41.4127 43.7935C46.1186 39.4474 48.8316 33.0527 48.8316 25.4678Z" fill="#4285F4"/>
<path d="M24.9139 49.8282C31.6406 49.8282 37.2878 47.6135 41.4126 43.7935L33.5507 37.7032C31.4469 39.1704 28.6233 40.1946 24.9139 40.1946C18.3255 40.1946 12.7338 35.8486 10.7404 29.8416L10.4483 29.8664L2.7578 35.8181L2.65723 36.0977C6.75417 44.2362 15.1696 49.8282 24.9139 49.8282Z" fill="#34A853"/>
<path d="M10.7406 29.8416C10.2147 28.2914 9.91031 26.6303 9.91031 24.9141C9.91031 23.1977 10.2147 21.5368 10.713 19.9866L10.699 19.6565L2.91221 13.6091L2.65744 13.7303C0.968893 17.1076 0 20.9002 0 24.9141C0 28.928 0.968893 32.7204 2.65744 36.0977L10.7406 29.8416Z" fill="#FBBC05"/>
<path d="M24.9139 9.6334C29.5921 9.6334 32.7479 11.6542 34.5473 13.3429L41.5786 6.47767C37.2603 2.46374 31.6406 0 24.9139 0C15.1696 0 6.75417 5.59179 2.65723 13.7303L10.7128 19.9866C12.7338 13.9796 18.3255 9.6334 24.9139 9.6334Z" fill="#EB4335"/>
</svg>
